# File created by Blade
# Date/Time:  Tue Jan 27 17:21:46 2015
#---------------------------------------------------------
:version 1.10
:name HOM
:units
  mass 1.0
  length 1.000000
  angle deg
:documentation
     Acclaim Skeleton File
:root
   axis xyz
   order TX TY TZ RX RY RZ
   position 0.000000 0.000000 0.000000
   orientation 0 0 0
:bonedata
   begin
      id 1
      name Spine_dum
      direction 0.000000 1.000000 0.000000
      length 7.539951
      axis 0.0 0.0 0.0 xyz
   end
   begin
      id 2
      name LeftUpLeg_dum
      direction 1.000000 0.000000 0.000000
      length 3.345476
      axis 0.0 0.0 0.0 xyz
   end
   begin
      id 3
      name RightUpLeg_dum
      direction -1.000000 0.000000 0.000000
      length 3.345476
      axis 0.0 0.0 0.0 xyz
   end
   begin
      id 4
      name Spine
      direction 0.000000 1.000000 0.000000
      length 0.000000
      axis 0.0 0.0 0.0 xyz
      dof rx ry rz
   end
   begin
      id 5
      name Spine_dum1
      direction 0.000000 1.000000 0.000000
      length 15.093809
      axis 0.0 0.0 0.0 xyz
   end
   begin
      id 6
      name Spine_dum2
      direction 0.000000 1.000000 0.000000
      length 9.738928
      axis 0.0 0.0 0.0 xyz
   end
   begin
      id 7
      name Spine_dum3
      direction 0.000000 1.000000 0.000000
      length 9.738928
      axis 0.0 0.0 0.0 xyz
   end
   begin
      id 8
      name Head
      direction 0.000000 1.000000 0.000000
      length 4.527550
      axis 0.0 0.0 0.0 xyz
      dof rx ry rz
   end
   begin
      id 9
      name LeftShoulder
      direction 1.000000 0.000000 0.000000
      length 7.084015
      axis 0.0 0.0 -90.0 xyz
      dof rx ry rz
   end
   begin
      id 10
      name LeftArm
      direction 1.000000 0.000000 0.000000
      length 10.259319
      axis 0.0 0.0 -90.0 xyz
      dof rx ry rz
   end
   begin
      id 11
      name LeftForeArm
      direction 1.000000 0.000000 0.000000
      length 9.896984
      axis 0.0 0.0 -90.0 xyz
      dof ry rz rx
   end
   begin
      id 12
      name LeftHand
      direction 0.000000 0.000000 0.000000
      length 0.000000
      axis 0.0 0.0 -90.0 xyz
      dof rx ry rz
   end
   begin
      id 13
      name LeftHand_dum1
      direction 0.000000 0.000000 0.000000
      length 0.000000
      axis 0.0 0.0 -90.0 xyz
   end
   begin
      id 14
      name LeftHand_dum2
      direction 1.000000 0.000000 0.000000
      length 3.937000
      axis 0.0 0.0 -90.0 xyz
   end
   begin
      id 15
      name LeftHandThumb1
      direction 0.000000 0.000000 1.000000
      length 3.937000
      axis 0.0 0.0 -90.0 xyz
      dof rx rz ry
   end
   begin
      id 16
      name RightShoulder
      direction -1.000000 0.000000 0.000000
      length 7.084015
      axis 0.0 0.0 90.0 xyz
      dof rx ry rz
   end
   begin
      id 17
      name RightArm
      direction -1.000000 0.000000 0.000000
      length 10.259319
      axis 0.0 0.0 90.0 xyz
      dof rx ry rz
   end
   begin
      id 18
      name RightForeArm
      direction -1.000000 0.000000 0.000000
      length 9.896984
      axis 0.0 0.0 90.0 xyz
      dof ry rz rx
   end
   begin
      id 19
      name RightHand
      direction 0.000000 0.000000 0.000000
      length 0.000000
      axis 0.0 0.0 90.0 xyz
      dof rx ry rz
   end
   begin
      id 20
      name RightHand_dum1
      direction 0.000000 0.000000 0.000000
      length 0.000000
      axis 0.0 0.0 90.0 xyz
   end
   begin
      id 21
      name RightHand_dum2
      direction -1.000000 0.000000 0.000000
      length 3.937000
      axis 0.0 0.0 90.0 xyz
   end
   begin
      id 22
      name RightHandThumb1
      direction 0.000000 0.000000 1.000000
      length 3.937000
      axis 0.0 0.0 90.0 xyz
      dof rx rz ry
   end
   begin
      id 23
      name LeftUpLeg
      direction 0.000000 -1.000000 0.000000
      length 19.114733
      axis 0.0 0.0 0.0 xyz
      dof rx ry rz
   end
   begin
      id 24
      name LeftLeg
      direction 0.000000 -1.000000 0.000000
      length 16.045604
      axis 0.0 0.0 0.0 xyz
      dof rx ry rz
   end
   begin
      id 25
      name LeftFoot
      direction 0.000000 -0.258819 0.965926
      length 5.543155
      axis 15.0 0.0 0.0 xyz
      dof rx ry rz
   end
   begin
      id 26
      name LeftToeBase
      direction 0.000000 0.000000 1.000000
      length 2.952750
      axis 0.0 0.0 0.0 xyz
      dof rx ry rz
   end
   begin
      id 27
      name RightUpLeg
      direction 0.000000 -1.000000 0.000000
      length 19.114733
      axis 0.0 0.0 0.0 xyz
      dof rx ry rz
   end
   begin
      id 28
      name RightLeg
      direction 0.000000 -1.000000 0.000000
      length 16.045604
      axis 0.0 0.0 0.0 xyz
      dof rx ry rz
   end
   begin
      id 29
      name RightFoot
      direction 0.000000 -0.258819 0.965926
      length 5.543155
      axis 15.0 0.0 0.0 xyz
      dof rx ry rz
   end
   begin
      id 30
      name RightToeBase
      direction 0.000000 0.000000 1.000000
      length 2.952750
      axis 0.0 0.0 0.0 xyz
      dof rx ry rz
   end
:hierarchy
   begin
      root Spine_dum LeftUpLeg_dum RightUpLeg_dum
      Spine_dum Spine
      LeftUpLeg_dum LeftUpLeg
      RightUpLeg_dum RightUpLeg
      Spine Spine_dum1 Spine_dum2 Spine_dum3
      Spine_dum1 Head
      Spine_dum2 LeftShoulder
      Spine_dum3 RightShoulder
      LeftShoulder LeftArm
      LeftArm LeftForeArm
      LeftForeArm LeftHand
      LeftHand LeftHand_dum1 LeftHand_dum2
      LeftHand_dum1 LeftHandThumb1
      RightShoulder RightArm
      RightArm RightForeArm
      RightForeArm RightHand
      RightHand RightHand_dum1 RightHand_dum2
      RightHand_dum1 RightHandThumb1
      LeftUpLeg LeftLeg
      LeftLeg LeftFoot
      LeftFoot LeftToeBase
      RightUpLeg RightLeg
      RightLeg RightFoot
      RightFoot RightToeBase
   end

# File created by Blade
# Date/Time:  Tue Jan 27 17:21:37 2015
# Frame Rate: 120.000 fps
#------------------------------------------------------
:FULLY-SPECIFIED
:DEGREES
1727
root -3.133387 36.209550 0.323270 4.883867 25.447730 -2.258594
Spine -0.640452 0.337216 1.928873
Head 5.922781 -5.145194 2.956114
LeftShoulder -0.791777 -14.963774 10.664851
LeftArm 5.930137 -18.182673 -42.925772
LeftForeArm 1.212105 0.000000 66.396483
LeftHand -16.414193 -0.000000 45.777599
LeftHandThumb1 -26.253704 0.000000 33.147579
RightShoulder -6.913762 -18.990887 3.097908
RightArm 15.553315 -21.605986 52.333947
RightForeArm 176.149268 -0.000000 36.880868
RightHand -0.025086 0.000000 -1.575490
RightHandThumb1 -24.326973 -0.000000 -32.862282
LeftUpLeg -48.366567 31.307439 6.603884
LeftLeg 94.926221 -0.000000 -0.000000
LeftFoot -8.541162 4.365831 -29.386232
LeftToeBase 14.232498 -0.000000 -0.000000
RightUpLeg -13.503915 -14.307259 13.241186
RightLeg 18.903011 -0.000000 -0.000000
RightFoot -18.195612 -11.992755 -3.389134
RightToeBase 3.235302 -0.000000 -0.000000
1728
root -3.139812 36.206960 0.339433 4.859939 25.463918 -2.273696
Spine -0.617096 0.408081 1.892726
Head 5.966533 -5.255163 3.047753
LeftShoulder -0.755838 -14.933682 10.699170
LeftArm 5.984884 -18.215929 -42.927519
LeftForeArm 1.096328 -0.000000 66.456172
LeftHand -17.103926 -0.000000 46.509596
LeftHandThumb1 -26.253704 0.000000 33.147579
RightShoulder -6.894906 -19.002668 3.088245
RightArm 15.657809 -21.667909 52.301079
RightForeArm 176.217339 -0.000000 37.104583
RightHand 0.028540 -0.000000 -1.238477
RightHandThumb1 -24.326973 -0.000000 -32.862282
LeftUpLeg -48.475568 31.368025 6.418876
LeftLeg 94.596369 -0.000000 -0.000000
LeftFoot -8.551234 4.112336 -29.382941
LeftToeBase 14.462411 -0.000000 -0.000000
RightUpLeg -13.458952 -14.295189 13.272077
RightLeg 18.870407 -0.000000 -0.000000
RightFoot -18.234588 -12.010173 -3.353827
RightToeBase 3.335045 -0.000000 -0.000000
1729
root -3.146709 36.204683 0.356657 4.844459 25.464236 -2.283705
Spine -0.595844 0.490315 1.852259
Head 5.982320 -5.378674 3.119381
LeftShoulder -0.742729 -14.943051 10.749349
LeftArm 5.978427 -18.104337 -42.948258
LeftForeArm 1.266223 -0.000000 66.546850
LeftHand -16.554113 -0.000000 46.026250
LeftHandThumb1 -26.253704 0.000000 33.147579
RightShoulder -6.864093 -18.976402 3.046745
RightArm 15.760252 -21.699819 52.317900
RightForeArm 176.185109 0.000000 37.234846
RightHand -0.080088 -0.000000 -1.342461
RightHandThumb1 -24.326973 -0.000000 -32.862282
LeftUpLeg -48.586963 31.433792 6.246914
LeftLeg 94.323684 -0.000000 -0.000000
LeftFoot -8.527856 3.805958 -29.454136
LeftToeBase 14.419977 -0.000000 -0.000000
RightUpLeg -13.415999 -14.288425 13.294947
RightLeg 18.846982 -0.000000 -0.000000
RightFoot -18.236904 -12.017788 -3.351723
RightToeBase 3.294392 -0.000000 -0.000000
1730
root -3.151833 36.202939 0.373307 4.823616 25.453528 -2.283681
Spine -0.554370 0.590983 1.799354
Head 5.982918 -5.499860 3.197322
LeftShoulder -0.740903 -14.948198 10.794204
LeftArm 6.017178 -18.038966 -42.993217
LeftForeArm 1.336013 -0.000000 66.668092
LeftHand -16.502110 -0.000000 46.058950
LeftHandThumb1 -26.253704 0.000000 33.147579
RightShoulder -6.879798 -18.992471 3.062104
RightArm 15.916295 -21.846831 52.179587
RightForeArm 176.361910 -0.000000 37.458027
RightHand -0.078716 -0.000000 -1.246895
RightHandThumb1 -24.326973 -0.000000 -32.862282
LeftUpLeg -48.694528 31.499929 6.081181
LeftLeg 94.112381 -0.000000 -0.000000
LeftFoot -8.417083 3.600048 -29.385283
LeftToeBase 14.367564 -0.000000 -0.000000
RightUpLeg -13.374957 -14.321378 13.305016
RightLeg 18.852078 -0.000000 -0.000000
RightFoot -18.257369 -12.024480 -3.427386
RightToeBase 3.347359 -0.000000 -0.000000
1731
root -3.156341 36.200251 0.391429 4.764326 25.473336 -2.253599
Spine -0.447271 0.658059 1.706526
Head 5.969572 -5.623327 3.287010
LeftShoulder -0.724676 -14.989990 10.853132
LeftArm 6.026646 -17.997128 -43.035854
LeftForeArm 1.348936 0.000000 66.812319
LeftHand -16.656331 -0.000000 45.942840
LeftHandThumb1 -26.253704 0.000000 33.147579
RightShoulder -6.870493 -18.961356 3.064858
RightArm 16.009192 -21.864812 52.172739
RightForeArm 176.411056 -0.000000 37.652960
RightHand -0.005119 -0.000000 -1.236331
RightHandThumb1 -24.326973 -0.000000 -32.862282
LeftUpLeg -48.762596 31.520949 5.930585
LeftLeg 93.967447 -0.000000 -0.000000
LeftFoot -8.322823 3.448912 -29.569257
LeftToeBase 14.706571 -0.000000 -0.000000
RightUpLeg -13.284986 -14.404452 13.278427
RightLeg 18.852657 -0.000000 -0.000000
RightFoot -18.291813 -11.938496 -3.422586
RightToeBase 3.289093 -0.000000 -0.000000
1732
root -3.161274 36.198388 0.405761 4.723084 25.512146 -2.250334
Spine -0.368859 0.702440 1.670261
Head 5.959448 -5.718160 3.316042
LeftShoulder -0.722545 -15.023331 10.866040
LeftArm 6.063913 -17.937237 -43.066116
LeftForeArm 1.386769 0.000000 66.951037
LeftHand -16.765548 -0.000000 46.013319
LeftHandThumb1 -26.253704 0.000000 33.147579
RightShoulder -6.869674 -18.939084 3.044398
RightArm 16.151823 -21.940639 52.096481
RightForeArm 176.374311 -0.000000 37.797118
RightHand -0.131778 -0.000000 -1.107448
RightHandThumb1 -24.326973 -0.000000 -32.862282
LeftUpLeg -48.890073 31.520192 5.777833
LeftLeg 93.870488 -0.000000 -0.000000
LeftFoot -8.258353 3.322602 -29.791168
LeftToeBase 14.853008 -0.000000 -0.000000
RightUpLeg -13.235087 -14.484283 13.285913
RightLeg 18.861043 -0.000000 -0.000000
RightFoot -18.316998 -11.915908 -3.419243
RightToeBase 3.269294 -0.000000 -0.000000
1733
root -3.164169 36.197209 0.420137 4.696610 25.533096 -2.250916
Spine -0.319464 0.743839 1.646916
Head 5.954583 -5.808563 3.323997
LeftShoulder -0.757873 -15.038646 10.888674
LeftArm 6.120852 -17.902556 -43.155199
LeftForeArm 1.462537 -0.000000 67.089084
LeftHand -16.807833 -0.000000 45.998835
LeftHandThumb1 -26.253704 0.000000 33.147579
RightShoulder -6.833108 -18.899625 3.005305
RightArm 16.242467 -22.063702 52.003713
RightForeArm 176.409787 -0.000000 37.969820
RightHand -0.115416 -0.000000 -1.097901
RightHandThumb1 -24.326973 -0.000000 -32.862282
LeftUpLeg -49.034049 31.540453 5.623468
LeftLeg 93.804336 -0.000000 -0.000000
LeftFoot -8.166674 3.237905 -30.027312
LeftToeBase 14.725048 -0.000000 -0.000000
RightUpLeg -13.196847 -14.563315 13.295228
RightLeg 18.873853 -0.000000 -0.000000
RightFoot -18.348411 -11.874720 -3.424343
RightToeBase 3.287993 -0.000000 -0.000000
1734
root -3.168553 36.195484 0.435277 4.640010 25.562327 -2.233634
Spine -0.220205 0.782253 1.594053
Head 5.939881 -5.907088 3.331732
LeftShoulder -0.763837 -15.074339 10.923686
LeftArm 6.149577 -17.879325 -43.243420
LeftForeArm 1.565270 0.000000 67.239197
LeftHand -16.842397 -0.000000 45.918150
LeftHandThumb1 -26.253704 0.000000 33.147579
RightShoulder -6.833646 -18.863787 2.987672
RightArm 16.389868 -22.157513 51.903255
RightForeArm 176.495312 -0.000000 38.116816
RightHand -0.062866 -0.000000 -1.127708
RightHandThumb1 -24.326973 -0.000000 -32.862282
LeftUpLeg -49.138942 31.540516 5.491638
LeftLeg 93.797556 -0.000000 -0.000000
LeftFoot -8.064865 3.222208 -30.069517
LeftToeBase 15.143143 -0.000000 -0.000000
RightUpLeg -13.127557 -14.649668 13.286538
RightLeg 18.901774 -0.000000 -0.000000
RightFoot -18.405628 -11.850431 -3.370364
RightToeBase 3.315551 -0.000000 -0.000000
1735
root -3.172249 36.194925 0.449097 4.577855 25.571717 -2.211457
Spine -0.117170 0.842799 1.541464
Head 5.937611 -6.020374 3.315554
LeftShoulder -0.738156 -15.094308 10.927261
LeftArm 6.176513 -17.877928 -43.305130
LeftForeArm 1.601950 -0.000000 67.397197
LeftHand -16.907801 -0.000000 46.026720
LeftHandThumb1 -26.253704 0.000000 33.147579
RightShoulder -6.818303 -18.837198 2.979311
RightArm 16.499623 -22.205480 51.817222
RightForeArm 176.515181 -0.000000 38.276906
RightHand -0.073142 -0.000000 -1.139130
RightHandThumb1 -24.326973 -0.000000 -32.862282
LeftUpLeg -49.224537 31.541693 5.373869
LeftLeg 93.824915 -0.000000 -0.000000
LeftFoot -8.062928 3.139792 -30.344115
LeftToeBase 14.764436 -0.000000 -0.000000
RightUpLeg -13.049859 -14.689035 13.256439
RightLeg 18.941866 -0.000000 -0.000000
RightFoot -18.393675 -11.886980 -3.456362
RightToeBase 3.205825 -0.000000 -0.000000
1736
root -3.176363 36.193745 0.463864 4.535729 25.583454 -2.179797
Spine -0.038230 0.887098 1.475310
Head 5.942730 -6.104706 3.296511
LeftShoulder -0.731638 -15.098423 10.949043
LeftArm 6.206297 -17.897543 -43.399545
LeftForeArm 1.673423 -0.000000 67.562462
LeftHand -16.855280 -0.000000 45.956672
LeftHandThumb1 -26.253704 0.000000 33.147579
RightShoulder -6.801451 -18.827452 2.968618
RightArm 16.630254 -22.284048 51.715367
RightForeArm 176.502549 -0.000000 38.420046
RightHand -0.063927 -0.000000 -1.058460
RightHandThumb1 -24.326973 -0.000000 -32.862282
LeftUpLeg -49.330583 31.569209 5.236483
LeftLeg 93.887765 -0.000000 -0.000000
LeftFoot -7.941829 3.212979 -30.036675
LeftToeBase 14.638140 -0.000000 -0.000000
RightUpLeg -12.991330 -14.770386 13.233362
RightLeg 18.960794 -0.000000 -0.000000
RightFoot -18.471094 -11.804517 -3.368224
RightToeBase 3.268749 -0.000000 -0.000000
